<svg width="567" height="183" viewBox="0 0 567 183" fill="none" xmlns="http://www.w3.org/2000/svg">
<path d="M53.65 109.2C53.65 114.15 54.19 117.57 57.34 118.47V120H38.89V118.47C42.31 117.48 42.4 113.79 42.4 109.2V89.49C42.4 86.34 41.59 84.72 37.9 82.74V81.21L53.65 77.61V109.2ZM103.51 109.02C103.51 113.97 103.96 117.66 107.2 118.47V120H88.66V118.47C92.08 117.48 92.26 113.61 92.26 109.02V91.56C92.26 86.52 89.74 84.09 85.69 84.09C84.34 84.09 82.9 84.81 81.73 85.8L80.47 84.36C83.17 80.67 87.67 77.61 92.17 77.61C99.19 77.61 103.51 80.4 103.51 91.29V109.02ZM78.58 109.02C78.58 113.97 79.03 117.66 82.27 118.47V120H63.73V118.47C67.15 117.48 67.33 113.61 67.33 109.02V91.56C67.33 86.52 64.9 84.09 60.85 84.09C59.5 84.09 58.06 84.81 56.89 85.8L55.81 84.36C58.6 80.67 62.74 77.61 67.24 77.61C77.77 77.61 78.58 85.53 78.58 91.74V109.02ZM123.483 92.73C121.143 94.26 117.993 93.72 116.373 91.38C115.293 89.67 115.203 87.51 116.103 85.98C116.913 84.63 117.993 82.56 121.863 80.22L122.493 81.66C121.143 82.74 121.053 83.64 121.503 83.64C122.853 83.82 124.023 84.45 124.833 85.62C126.453 87.96 125.823 91.11 123.483 92.73ZM151.203 115.32C151.203 115.32 153.093 115.32 153.633 113.79L155.163 114.42C154.443 117.3 150.303 120.81 144.633 120.81C144.633 120.81 135.543 120.81 135.543 112.71V98.58C126.723 100.56 123.753 104.79 123.753 109.38C123.753 109.38 123.753 115.32 129.603 115.32C130.593 115.32 131.493 115.23 132.213 114.87L133.293 116.4C130.863 118.65 126.993 120.81 122.583 120.81C122.583 120.81 112.233 120.81 112.233 111.63C112.233 101.82 119.793 100.92 135.543 96.96V91.38C135.543 82.92 131.223 78.33 125.823 79.95L125.193 78.6C128.613 77.43 131.853 77.61 131.853 77.61C143.643 77.61 146.883 84.99 146.883 95.61V109.02C146.883 109.02 146.793 115.32 151.203 115.32ZM182.709 78.42H200.259V79.95C198.189 79.95 194.319 80.04 188.559 93.9L187.119 93.09C187.929 90.84 191.439 79.95 182.709 79.95V78.42ZM174.789 79.95C169.749 79.95 173.079 86.7 173.079 86.7L182.979 107.94L177.849 120.81H176.409C160.479 86.25 159.669 84.72 159.669 84.72C157.509 79.95 155.169 79.95 153.549 79.95V78.42H174.789V79.95ZM223.676 113.16C228.536 114.24 235.736 112.44 237.986 108.21L239.516 109.02C238.076 113.7 232.766 120.81 220.706 120.81C208.916 120.81 200.816 109.92 200.816 99.39C200.816 87.51 208.466 78.69 219.716 77.79V79.23C215.306 80.94 212.426 89.22 212.426 96.87H230.066C230.066 87.24 227.366 80.76 223.406 79.23V77.7C235.376 78.24 241.046 84.99 241.046 98.4H212.426C213.146 107.22 217.646 111.81 223.676 113.16ZM261.873 109.02C261.873 114.06 262.323 117.57 265.563 118.47V120H246.933V118.47C250.443 117.39 250.533 113.7 250.533 109.02V89.04C250.533 85.98 249.723 84.63 246.033 82.74V81.21L261.873 77.61V109.02ZM272.493 78.06C274.383 77.25 277.803 77.61 279.783 79.23C282.573 81.66 282.843 85.98 280.413 88.68C277.983 91.47 273.843 91.83 270.963 89.4C269.613 88.14 268.893 86.61 268.893 84.99C268.893 84.27 266.913 84.27 264.663 86.34L263.763 85.08C267.633 79.95 270.603 78.87 272.493 78.06ZM301.006 64.29C301.006 67.71 298.216 70.41 294.796 70.41C291.376 70.41 288.676 67.71 288.676 64.29C288.676 60.87 291.376 58.17 294.796 58.17C298.216 58.17 301.006 60.87 301.006 64.29ZM301.276 109.02C301.276 114.06 301.726 117.57 304.966 118.47V120H286.516V118.47C289.936 117.39 290.116 113.61 290.116 109.02V89.04C290.116 85.98 289.216 84.72 285.526 82.74V81.21L301.276 77.61V109.02ZM354.936 99.21C354.936 110.46 347.916 119.91 335.316 120.72V119.1C340.266 118.38 341.616 113.79 341.616 99.21C341.616 84.63 340.266 80.04 335.316 79.32V77.7C347.916 78.51 354.936 87.87 354.936 99.21ZM325.326 99.21C325.326 113.79 326.676 118.38 331.626 119.1V120.72C319.116 119.91 312.096 110.46 312.096 99.21C312.096 87.87 319.116 78.51 331.626 77.7V79.32C326.676 80.04 325.326 84.63 325.326 99.21ZM375.066 109.2C375.066 114.15 375.606 117.57 378.756 118.47V120H360.306V118.47C363.726 117.48 363.816 113.79 363.816 109.2V88.86C363.816 85.71 363.006 84.72 359.316 82.74V81.21L375.066 77.61V109.2ZM401.256 109.02C401.256 113.97 401.706 117.66 404.946 118.47V120H386.406V118.47C389.826 117.48 390.006 113.61 390.006 109.02V91.56C390.006 87.24 387.216 84.09 382.716 84.09C381.546 84.09 380.286 84.54 379.116 85.17L378.036 83.37C381.186 80.13 385.776 77.61 389.916 77.61C396.936 77.61 401.256 80.4 401.256 91.29V109.02Z" fill="#787DFD"/>
<path d="M427.812 112.89C427.812 117.12 424.392 120.45 420.252 120.45C416.022 120.45 412.602 117.12 412.602 112.89C412.602 108.66 416.022 105.24 420.252 105.24C424.392 105.24 427.812 108.66 427.812 112.89ZM465.693 81.03C466.323 80.76 465.153 79.77 462.813 79.32V77.7C468.033 78.15 471.273 80.4 472.713 81.57C474.243 82.92 475.143 85.44 474.513 87.6C473.613 90.75 470.373 92.82 467.133 91.92C463.893 91.11 462.003 87.78 462.903 84.63C463.263 82.92 464.343 81.75 465.693 81.03ZM474.063 108.39L475.323 109.2C474.063 113.79 468.663 120.81 457.413 120.81C445.623 120.81 437.613 109.56 437.613 99.03C437.613 89.13 444.903 78.6 459.033 77.7V79.41C455.163 80.31 448.953 84.36 448.953 97.41C448.953 107.13 454.173 111.45 460.383 112.8C464.883 113.79 471.993 111.36 474.063 108.39ZM525.093 99.21C525.093 110.46 518.073 119.91 505.473 120.72V119.1C510.423 118.38 511.773 113.79 511.773 99.21C511.773 84.63 510.423 80.04 505.473 79.32V77.7C518.073 78.51 525.093 87.87 525.093 99.21ZM495.483 99.21C495.483 113.79 496.833 118.38 501.783 119.1V120.72C489.273 119.91 482.253 110.46 482.253 99.21C482.253 87.87 489.273 78.51 501.783 77.7V79.32C496.833 80.04 495.483 84.63 495.483 99.21Z" fill="#2B2929"/>
</svg>
